<mxfile host="app.diagrams.net" modified="2023-12-19T10:06:01.029Z" agent="Mozilla/5.0 (Windows NT 10.0; Win64; x64) AppleWebKit/537.36 (KHTML, like Gecko) Chrome/120.0.0.0 Safari/537.36" etag="CRi735LNZyCklh8P0Lg8" version="22.1.11" type="github">
  <diagram name="Page-1" id="97916047-d0de-89f5-080d-49f4d83e522f">
    <mxGraphModel dx="3771" dy="5519.5" grid="1" gridSize="10" guides="1" tooltips="1" connect="1" arrows="1" fold="1" page="1" pageScale="1.5" pageWidth="3300" pageHeight="2339" background="none" math="0" shadow="0">
      <root>
        <mxCell id="0" />
        <mxCell id="1" parent="0" />
        <mxCell id="vXLQaoK03CL5f1c-ASwQ-62" value="Нажатие на кнопку &lt;br&gt;&quot;МОИ ПРОМО&quot;" style="rounded=1;whiteSpace=wrap;html=1;fontSize=16;labelBackgroundColor=none;" vertex="1" parent="1">
          <mxGeometry x="844.72" y="560" width="150" height="80" as="geometry" />
        </mxCell>
        <mxCell id="vXLQaoK03CL5f1c-ASwQ-68" style="edgeStyle=orthogonalEdgeStyle;rounded=0;orthogonalLoop=1;jettySize=auto;html=1;exitX=1;exitY=0.5;exitDx=0;exitDy=0;exitPerimeter=0;entryX=0.718;entryY=0.001;entryDx=0;entryDy=0;entryPerimeter=0;" edge="1" parent="1" source="vXLQaoK03CL5f1c-ASwQ-66" target="vXLQaoK03CL5f1c-ASwQ-104">
          <mxGeometry relative="1" as="geometry">
            <mxPoint x="960" y="1190" as="targetPoint" />
            <mxPoint x="1040" y="810" as="sourcePoint" />
            <Array as="points">
              <mxPoint x="1110" y="780" />
              <mxPoint x="1110" y="999" />
              <mxPoint x="950" y="999" />
              <mxPoint x="950" y="1269" />
            </Array>
          </mxGeometry>
        </mxCell>
        <mxCell id="vXLQaoK03CL5f1c-ASwQ-69" style="edgeStyle=orthogonalEdgeStyle;rounded=0;orthogonalLoop=1;jettySize=auto;html=1;exitX=0;exitY=0.5;exitDx=0;exitDy=0;exitPerimeter=0;entryX=0.5;entryY=0;entryDx=0;entryDy=0;" edge="1" parent="1" source="vXLQaoK03CL5f1c-ASwQ-66" target="vXLQaoK03CL5f1c-ASwQ-73">
          <mxGeometry relative="1" as="geometry">
            <mxPoint x="729.72" y="950" as="targetPoint" />
          </mxGeometry>
        </mxCell>
        <mxCell id="vXLQaoK03CL5f1c-ASwQ-66" value="Первое создание промо?" style="strokeWidth=2;html=1;shape=mxgraph.flowchart.decision;whiteSpace=wrap;" vertex="1" parent="1">
          <mxGeometry x="819.72" y="730" width="200" height="100" as="geometry" />
        </mxCell>
        <mxCell id="vXLQaoK03CL5f1c-ASwQ-67" style="edgeStyle=orthogonalEdgeStyle;rounded=0;orthogonalLoop=1;jettySize=auto;html=1;exitX=0.5;exitY=1;exitDx=0;exitDy=0;entryX=0.5;entryY=0;entryDx=0;entryDy=0;entryPerimeter=0;" edge="1" parent="1" source="vXLQaoK03CL5f1c-ASwQ-62" target="vXLQaoK03CL5f1c-ASwQ-66">
          <mxGeometry relative="1" as="geometry" />
        </mxCell>
        <mxCell id="vXLQaoK03CL5f1c-ASwQ-71" value="Да" style="text;html=1;align=center;verticalAlign=middle;resizable=0;points=[];autosize=1;strokeColor=none;fillColor=none;" vertex="1" parent="1">
          <mxGeometry x="729.72" y="750" width="40" height="30" as="geometry" />
        </mxCell>
        <mxCell id="vXLQaoK03CL5f1c-ASwQ-72" value="Нет" style="text;html=1;align=center;verticalAlign=middle;resizable=0;points=[];autosize=1;strokeColor=none;fillColor=none;" vertex="1" parent="1">
          <mxGeometry x="1080" y="750" width="40" height="30" as="geometry" />
        </mxCell>
        <mxCell id="vXLQaoK03CL5f1c-ASwQ-80" value="" style="edgeStyle=orthogonalEdgeStyle;rounded=0;orthogonalLoop=1;jettySize=auto;html=1;" edge="1" parent="1" source="vXLQaoK03CL5f1c-ASwQ-73" target="vXLQaoK03CL5f1c-ASwQ-79">
          <mxGeometry relative="1" as="geometry" />
        </mxCell>
        <mxCell id="vXLQaoK03CL5f1c-ASwQ-73" value="Приветственная страница (необходимо ввести данные о себе)" style="rounded=1;whiteSpace=wrap;html=1;fontSize=16;" vertex="1" parent="1">
          <mxGeometry x="647.36" y="840" width="165" height="90" as="geometry" />
        </mxCell>
        <mxCell id="vXLQaoK03CL5f1c-ASwQ-75" value="Создание промо. &lt;br&gt;Нажатие кнопки &quot;МОИ ПРОМО&quot;" style="ellipse;whiteSpace=wrap;html=1;fontSize=24;fontColor=#67AB9F;" vertex="1" parent="1">
          <mxGeometry x="432" y="70" width="400" height="380" as="geometry" />
        </mxCell>
        <mxCell id="vXLQaoK03CL5f1c-ASwQ-76" value="" style="endArrow=none;dashed=1;html=1;dashPattern=1 3;strokeWidth=2;rounded=0;exitX=1;exitY=0.5;exitDx=0;exitDy=0;strokeColor=#99CCFF;fontSize=12;entryX=0.051;entryY=-0.077;entryDx=0;entryDy=0;entryPerimeter=0;" edge="1" parent="1" source="vXLQaoK03CL5f1c-ASwQ-77" target="vXLQaoK03CL5f1c-ASwQ-102">
          <mxGeometry width="50" height="50" relative="1" as="geometry">
            <mxPoint x="400" y="995" as="sourcePoint" />
            <mxPoint x="730" y="1000" as="targetPoint" />
          </mxGeometry>
        </mxCell>
        <mxCell id="vXLQaoK03CL5f1c-ASwQ-82" style="edgeStyle=orthogonalEdgeStyle;rounded=0;orthogonalLoop=1;jettySize=auto;html=1;exitX=0.5;exitY=0;exitDx=0;exitDy=0;strokeColor=#99CCFF;fontSize=12;" edge="1" parent="1" source="vXLQaoK03CL5f1c-ASwQ-77" target="vXLQaoK03CL5f1c-ASwQ-78">
          <mxGeometry relative="1" as="geometry" />
        </mxCell>
        <mxCell id="vXLQaoK03CL5f1c-ASwQ-77" value="&lt;div style=&quot;font-size: 12px;&quot;&gt;&lt;span style=&quot;white-space: pre; font-size: 12px;&quot;&gt;&#x9;&lt;/span&gt;&amp;nbsp;⁃ город &lt;span style=&quot;white-space: pre; font-size: 12px;&quot;&gt;&#x9;&lt;/span&gt;проведения акции &lt;span style=&quot;white-space: pre; font-size: 12px;&quot;&gt;&#x9;&lt;/span&gt;(выбирает из &lt;span style=&quot;white-space: pre; font-size: 12px;&quot;&gt;&#x9;&lt;/span&gt;списка, где у нас &lt;span style=&quot;white-space: pre; font-size: 12px;&quot;&gt;&#x9;&lt;/span&gt;есть админы)&lt;br style=&quot;font-size: 12px;&quot;&gt;&lt;br style=&quot;font-size: 12px;&quot;&gt;&lt;/div&gt;&lt;div style=&quot;font-size: 12px;&quot;&gt;&amp;nbsp;&lt;span style=&quot;white-space: pre; font-size: 12px;&quot;&gt;&#x9;&lt;/span&gt;⁃ имя партнёра&amp;nbsp;&lt;/div&gt;&lt;div style=&quot;font-size: 12px;&quot;&gt;&lt;br style=&quot;font-size: 12px;&quot;&gt;&lt;span style=&quot;white-space: pre; font-size: 12px;&quot;&gt;&#x9;&lt;/span&gt;&amp;nbsp;⁃ емайл&lt;/div&gt;" style="rounded=1;whiteSpace=wrap;html=1;dashed=1;dashPattern=12 12;align=left;strokeColor=#99CCFF;fontSize=12;" vertex="1" parent="1">
          <mxGeometry x="245" y="710" width="137" height="196" as="geometry" />
        </mxCell>
        <mxCell id="vXLQaoK03CL5f1c-ASwQ-78" value="Поля для заполнения партнёром на приветственной странице" style="text;html=1;align=center;verticalAlign=middle;resizable=0;points=[];autosize=1;strokeColor=none;fillColor=none;fontStyle=1;fontSize=12;" vertex="1" parent="1">
          <mxGeometry x="113.5" y="670" width="400" height="30" as="geometry" />
        </mxCell>
        <mxCell id="vXLQaoK03CL5f1c-ASwQ-105" value="" style="edgeStyle=orthogonalEdgeStyle;rounded=0;orthogonalLoop=1;jettySize=auto;html=1;entryX=0.25;entryY=0;entryDx=0;entryDy=0;" edge="1" parent="1" source="vXLQaoK03CL5f1c-ASwQ-79" target="vXLQaoK03CL5f1c-ASwQ-104">
          <mxGeometry relative="1" as="geometry" />
        </mxCell>
        <mxCell id="vXLQaoK03CL5f1c-ASwQ-79" value="Назначение модератора к новому партнёру" style="whiteSpace=wrap;html=1;fontSize=16;rounded=1;" vertex="1" parent="1">
          <mxGeometry x="649.72" y="1037.5" width="160.28" height="70" as="geometry" />
        </mxCell>
        <mxCell id="vXLQaoK03CL5f1c-ASwQ-89" value="" style="edgeStyle=orthogonalEdgeStyle;rounded=0;orthogonalLoop=1;jettySize=auto;html=1;labelBorderColor=none;strokeColor=#99CCFF;fontSize=12;" edge="1" parent="1" source="vXLQaoK03CL5f1c-ASwQ-84" target="vXLQaoK03CL5f1c-ASwQ-88">
          <mxGeometry relative="1" as="geometry" />
        </mxCell>
        <mxCell id="vXLQaoK03CL5f1c-ASwQ-92" style="edgeStyle=orthogonalEdgeStyle;rounded=0;orthogonalLoop=1;jettySize=auto;html=1;exitX=0;exitY=0.5;exitDx=0;exitDy=0;exitPerimeter=0;labelBorderColor=none;strokeColor=#99CCFF;fontSize=12;" edge="1" parent="1" source="vXLQaoK03CL5f1c-ASwQ-84" target="vXLQaoK03CL5f1c-ASwQ-93">
          <mxGeometry relative="1" as="geometry">
            <mxPoint x="113.49999999999977" y="1210" as="targetPoint" />
          </mxGeometry>
        </mxCell>
        <mxCell id="vXLQaoK03CL5f1c-ASwQ-84" value="Партнёр зашёл по реферальной ссылке?" style="strokeWidth=2;html=1;shape=mxgraph.flowchart.decision;whiteSpace=wrap;labelBorderColor=none;strokeColor=#99CCFF;fontSize=12;" vertex="1" parent="1">
          <mxGeometry x="167" y="997.5" width="300" height="150" as="geometry" />
        </mxCell>
        <mxCell id="vXLQaoK03CL5f1c-ASwQ-87" style="edgeStyle=orthogonalEdgeStyle;rounded=0;orthogonalLoop=1;jettySize=auto;html=1;exitX=0;exitY=0.5;exitDx=0;exitDy=0;entryX=1;entryY=0.5;entryDx=0;entryDy=0;entryPerimeter=0;dashed=1;strokeColor=#99CCFF;fontSize=12;" edge="1" parent="1" source="vXLQaoK03CL5f1c-ASwQ-79" target="vXLQaoK03CL5f1c-ASwQ-84">
          <mxGeometry relative="1" as="geometry" />
        </mxCell>
        <mxCell id="vXLQaoK03CL5f1c-ASwQ-96" style="edgeStyle=orthogonalEdgeStyle;rounded=0;orthogonalLoop=1;jettySize=auto;html=1;exitX=0.75;exitY=1;exitDx=0;exitDy=0;entryX=0.75;entryY=0;entryDx=0;entryDy=0;labelBorderColor=none;strokeColor=#99CCFF;fontSize=12;" edge="1" parent="1" source="vXLQaoK03CL5f1c-ASwQ-88" target="vXLQaoK03CL5f1c-ASwQ-98">
          <mxGeometry relative="1" as="geometry">
            <mxPoint x="243.5" y="1470" as="targetPoint" />
          </mxGeometry>
        </mxCell>
        <mxCell id="vXLQaoK03CL5f1c-ASwQ-88" value="Всем модераторам в соответствующем городе отправляется сообщение о добавлении партнёра" style="rounded=1;whiteSpace=wrap;html=1;strokeWidth=2;labelBorderColor=none;strokeColor=#99CCFF;fontSize=12;" vertex="1" parent="1">
          <mxGeometry x="240.25" y="1210" width="213.25" height="82.5" as="geometry" />
        </mxCell>
        <mxCell id="vXLQaoK03CL5f1c-ASwQ-90" value="Нет" style="text;html=1;align=center;verticalAlign=middle;resizable=0;points=[];autosize=1;strokeColor=none;fillColor=none;labelBorderColor=none;fontSize=12;" vertex="1" parent="1">
          <mxGeometry x="333.5" y="1138" width="40" height="30" as="geometry" />
        </mxCell>
        <mxCell id="vXLQaoK03CL5f1c-ASwQ-91" value="Да" style="text;html=1;align=center;verticalAlign=middle;resizable=0;points=[];autosize=1;strokeColor=none;fillColor=none;labelBorderColor=none;fontSize=12;" vertex="1" parent="1">
          <mxGeometry x="127" y="1028" width="40" height="30" as="geometry" />
        </mxCell>
        <mxCell id="vXLQaoK03CL5f1c-ASwQ-95" style="edgeStyle=orthogonalEdgeStyle;rounded=0;orthogonalLoop=1;jettySize=auto;html=1;exitX=0.25;exitY=1;exitDx=0;exitDy=0;entryX=0.25;entryY=0;entryDx=0;entryDy=0;labelBorderColor=none;strokeColor=#99CCFF;fontSize=12;" edge="1" parent="1" source="vXLQaoK03CL5f1c-ASwQ-93" target="vXLQaoK03CL5f1c-ASwQ-98">
          <mxGeometry relative="1" as="geometry">
            <mxPoint x="223.5" y="1470" as="targetPoint" />
          </mxGeometry>
        </mxCell>
        <mxCell id="vXLQaoK03CL5f1c-ASwQ-93" value="Отправляется сообщение о добавлении партнёра" style="rounded=1;whiteSpace=wrap;html=1;fontSize=12;labelBorderColor=none;strokeColor=#99CCFF;" vertex="1" parent="1">
          <mxGeometry x="63.5" y="1210" width="140" height="80" as="geometry" />
        </mxCell>
        <mxCell id="vXLQaoK03CL5f1c-ASwQ-97" value="Первый нажавший на кнопку &quot;Принять партнёра&quot;&lt;br style=&quot;font-size: 12px;&quot;&gt;" style="text;html=1;align=center;verticalAlign=middle;resizable=0;points=[];autosize=1;strokeColor=none;fillColor=none;labelBackgroundColor=default;labelBorderColor=none;fontSize=12;" vertex="1" parent="1">
          <mxGeometry x="213.5" y="1320" width="300" height="30" as="geometry" />
        </mxCell>
        <mxCell id="vXLQaoK03CL5f1c-ASwQ-101" value="" style="edgeStyle=orthogonalEdgeStyle;rounded=0;orthogonalLoop=1;jettySize=auto;html=1;fontSize=12;" edge="1" parent="1" source="vXLQaoK03CL5f1c-ASwQ-98" target="vXLQaoK03CL5f1c-ASwQ-100">
          <mxGeometry relative="1" as="geometry" />
        </mxCell>
        <mxCell id="vXLQaoK03CL5f1c-ASwQ-98" value="Партнёру назначается менеджер, соответствующая запись в БД" style="rounded=1;whiteSpace=wrap;html=1;fontSize=12;labelBorderColor=none;strokeColor=#99CCFF;" vertex="1" parent="1">
          <mxGeometry x="153.5" y="1430" width="140" height="90" as="geometry" />
        </mxCell>
        <mxCell id="vXLQaoK03CL5f1c-ASwQ-99" value="Назначение модератора партнёру&lt;br style=&quot;font-size: 12px;&quot;&gt;" style="text;html=1;align=center;verticalAlign=middle;resizable=0;points=[];autosize=1;strokeColor=none;fillColor=none;fontStyle=1;fontSize=12;" vertex="1" parent="1">
          <mxGeometry x="202" y="960" width="230" height="30" as="geometry" />
        </mxCell>
        <mxCell id="vXLQaoK03CL5f1c-ASwQ-100" value="Уведомление партнёру, что его менеджер &quot;тот-то...., он готов всем помочь...&quot;" style="rounded=1;whiteSpace=wrap;html=1;fontSize=12;labelBorderColor=none;strokeColor=#99CCFF;" vertex="1" parent="1">
          <mxGeometry x="111.75" y="1550" width="223.5" height="100" as="geometry" />
        </mxCell>
        <mxCell id="vXLQaoK03CL5f1c-ASwQ-102" value="ввод данных партнёром" style="text;html=1;align=center;verticalAlign=middle;resizable=0;points=[];autosize=1;strokeColor=none;fillColor=none;labelBackgroundColor=default;" vertex="1" parent="1">
          <mxGeometry x="652.36" y="980" width="160" height="30" as="geometry" />
        </mxCell>
        <mxCell id="vXLQaoK03CL5f1c-ASwQ-104" value="Интерфейс для заполнения акции" style="whiteSpace=wrap;html=1;fontSize=20;rounded=1;" vertex="1" parent="1">
          <mxGeometry x="810" y="1269" width="195.28" height="132" as="geometry" />
        </mxCell>
        <mxCell id="vXLQaoK03CL5f1c-ASwQ-106" value="" style="endArrow=none;dashed=1;html=1;dashPattern=1 3;strokeWidth=4;rounded=0;strokeColor=#009900;" edge="1" parent="1">
          <mxGeometry width="50" height="50" relative="1" as="geometry">
            <mxPoint x="1240" y="1732.05" as="sourcePoint" />
            <mxPoint x="1240" y="-40.001156850961536" as="targetPoint" />
          </mxGeometry>
        </mxCell>
        <mxCell id="vXLQaoK03CL5f1c-ASwQ-107" value="" style="html=1;shadow=0;dashed=0;align=center;verticalAlign=middle;shape=mxgraph.arrows2.arrow;dy=0.6;dx=40;notch=0;rotation=90;" vertex="1" parent="1">
          <mxGeometry x="869.72" y="450" width="100" height="70" as="geometry" />
        </mxCell>
        <mxCell id="vXLQaoK03CL5f1c-ASwQ-108" value="Интерфейс для заполнения акции" style="ellipse;whiteSpace=wrap;html=1;fontSize=24;fontColor=#67AB9F;" vertex="1" parent="1">
          <mxGeometry x="1650" y="70" width="300" height="300" as="geometry" />
        </mxCell>
        <mxCell id="vXLQaoK03CL5f1c-ASwQ-109" style="edgeStyle=orthogonalEdgeStyle;rounded=0;orthogonalLoop=1;jettySize=auto;html=1;exitX=1;exitY=0.5;exitDx=0;exitDy=0;entryX=0.004;entryY=0.559;entryDx=0;entryDy=0;entryPerimeter=0;dashed=1;dashPattern=12 12;strokeColor=#FF33FF;" edge="1" parent="1" source="vXLQaoK03CL5f1c-ASwQ-104" target="vXLQaoK03CL5f1c-ASwQ-108">
          <mxGeometry relative="1" as="geometry">
            <Array as="points">
              <mxPoint x="1190" y="1335" />
              <mxPoint x="1190" y="238" />
            </Array>
          </mxGeometry>
        </mxCell>
        <mxCell id="vXLQaoK03CL5f1c-ASwQ-140" value="" style="edgeStyle=orthogonalEdgeStyle;rounded=0;orthogonalLoop=1;jettySize=auto;html=1;" edge="1" parent="1" source="vXLQaoK03CL5f1c-ASwQ-110" target="vXLQaoK03CL5f1c-ASwQ-139">
          <mxGeometry relative="1" as="geometry" />
        </mxCell>
        <mxCell id="vXLQaoK03CL5f1c-ASwQ-110" value="Переход на интерфейс для заполнения акции" style="rounded=1;whiteSpace=wrap;html=1;fontSize=16;labelBackgroundColor=none;" vertex="1" parent="1">
          <mxGeometry x="1605" y="520" width="390" height="80" as="geometry" />
        </mxCell>
        <mxCell id="vXLQaoK03CL5f1c-ASwQ-111" value="" style="html=1;shadow=0;dashed=0;align=center;verticalAlign=middle;shape=mxgraph.arrows2.arrow;dy=0.6;dx=40;notch=0;rotation=90;" vertex="1" parent="1">
          <mxGeometry x="1750" y="420" width="100" height="70" as="geometry" />
        </mxCell>
        <mxCell id="vXLQaoK03CL5f1c-ASwQ-116" value="" style="edgeStyle=orthogonalEdgeStyle;rounded=0;orthogonalLoop=1;jettySize=auto;html=1;" edge="1" parent="1" source="vXLQaoK03CL5f1c-ASwQ-113" target="vXLQaoK03CL5f1c-ASwQ-115">
          <mxGeometry relative="1" as="geometry" />
        </mxCell>
        <mxCell id="vXLQaoK03CL5f1c-ASwQ-113" value="Категория" style="shape=parallelogram;perimeter=parallelogramPerimeter;whiteSpace=wrap;html=1;fixedSize=1;fontSize=16;rounded=1;labelBackgroundColor=none;" vertex="1" parent="1">
          <mxGeometry x="2427.5" y="259" width="195" height="60" as="geometry" />
        </mxCell>
        <mxCell id="vXLQaoK03CL5f1c-ASwQ-118" value="" style="edgeStyle=orthogonalEdgeStyle;rounded=0;orthogonalLoop=1;jettySize=auto;html=1;" edge="1" parent="1" source="vXLQaoK03CL5f1c-ASwQ-115" target="vXLQaoK03CL5f1c-ASwQ-117">
          <mxGeometry relative="1" as="geometry" />
        </mxCell>
        <mxCell id="vXLQaoK03CL5f1c-ASwQ-115" value="Заголовок" style="shape=parallelogram;perimeter=parallelogramPerimeter;whiteSpace=wrap;html=1;fixedSize=1;fontSize=16;rounded=1;labelBackgroundColor=none;" vertex="1" parent="1">
          <mxGeometry x="2427.5" y="349" width="195" height="60" as="geometry" />
        </mxCell>
        <mxCell id="vXLQaoK03CL5f1c-ASwQ-120" value="" style="edgeStyle=orthogonalEdgeStyle;rounded=0;orthogonalLoop=1;jettySize=auto;html=1;" edge="1" parent="1" source="vXLQaoK03CL5f1c-ASwQ-117" target="vXLQaoK03CL5f1c-ASwQ-119">
          <mxGeometry relative="1" as="geometry" />
        </mxCell>
        <mxCell id="vXLQaoK03CL5f1c-ASwQ-117" value="Текст акции (суть)" style="shape=parallelogram;perimeter=parallelogramPerimeter;whiteSpace=wrap;html=1;fixedSize=1;fontSize=16;rounded=1;labelBackgroundColor=none;" vertex="1" parent="1">
          <mxGeometry x="2427.5" y="439" width="195" height="60" as="geometry" />
        </mxCell>
        <mxCell id="vXLQaoK03CL5f1c-ASwQ-122" value="" style="edgeStyle=orthogonalEdgeStyle;rounded=0;orthogonalLoop=1;jettySize=auto;html=1;" edge="1" parent="1" source="vXLQaoK03CL5f1c-ASwQ-119" target="vXLQaoK03CL5f1c-ASwQ-121">
          <mxGeometry relative="1" as="geometry" />
        </mxCell>
        <mxCell id="vXLQaoK03CL5f1c-ASwQ-119" value="Описание" style="shape=parallelogram;perimeter=parallelogramPerimeter;whiteSpace=wrap;html=1;fixedSize=1;fontSize=16;rounded=1;labelBackgroundColor=none;" vertex="1" parent="1">
          <mxGeometry x="2427.5" y="525" width="195" height="60" as="geometry" />
        </mxCell>
        <mxCell id="vXLQaoK03CL5f1c-ASwQ-136" style="edgeStyle=orthogonalEdgeStyle;rounded=0;orthogonalLoop=1;jettySize=auto;html=1;exitX=0.5;exitY=1;exitDx=0;exitDy=0;entryX=0.5;entryY=0;entryDx=0;entryDy=0;" edge="1" parent="1" source="vXLQaoK03CL5f1c-ASwQ-121" target="vXLQaoK03CL5f1c-ASwQ-124">
          <mxGeometry relative="1" as="geometry" />
        </mxCell>
        <mxCell id="vXLQaoK03CL5f1c-ASwQ-121" value="Название компании или имя исполнителя" style="shape=parallelogram;perimeter=parallelogramPerimeter;whiteSpace=wrap;html=1;fixedSize=1;fontSize=16;rounded=1;labelBackgroundColor=none;" vertex="1" parent="1">
          <mxGeometry x="2395" y="616.5" width="272.5" height="60" as="geometry" />
        </mxCell>
        <mxCell id="vXLQaoK03CL5f1c-ASwQ-123" value="" style="edgeStyle=orthogonalEdgeStyle;rounded=0;orthogonalLoop=1;jettySize=auto;html=1;" edge="1" parent="1" source="vXLQaoK03CL5f1c-ASwQ-124" target="vXLQaoK03CL5f1c-ASwQ-126">
          <mxGeometry relative="1" as="geometry">
            <Array as="points">
              <mxPoint x="2531" y="779" />
              <mxPoint x="2531" y="779" />
            </Array>
          </mxGeometry>
        </mxCell>
        <mxCell id="vXLQaoK03CL5f1c-ASwQ-124" value="Город местонахождения исполнителя" style="shape=parallelogram;perimeter=parallelogramPerimeter;whiteSpace=wrap;html=1;fixedSize=1;fontSize=16;rounded=1;labelBackgroundColor=none;" vertex="1" parent="1">
          <mxGeometry x="2410" y="697" width="242.5" height="60" as="geometry" />
        </mxCell>
        <mxCell id="vXLQaoK03CL5f1c-ASwQ-125" value="" style="edgeStyle=orthogonalEdgeStyle;rounded=0;orthogonalLoop=1;jettySize=auto;html=1;entryX=0.489;entryY=-0.03;entryDx=0;entryDy=0;entryPerimeter=0;exitX=0.473;exitY=1.009;exitDx=0;exitDy=0;exitPerimeter=0;" edge="1" parent="1" source="vXLQaoK03CL5f1c-ASwQ-126" target="vXLQaoK03CL5f1c-ASwQ-128">
          <mxGeometry relative="1" as="geometry">
            <mxPoint x="2539.144135338346" y="839" as="sourcePoint" />
            <mxPoint x="2523.365" y="854.46" as="targetPoint" />
            <Array as="points">
              <mxPoint x="2525" y="840" />
              <mxPoint x="2525" y="849" />
              <mxPoint x="2523" y="849" />
            </Array>
          </mxGeometry>
        </mxCell>
        <mxCell id="vXLQaoK03CL5f1c-ASwQ-126" value="Короткий ориентир (метро, улица, достопримечательность или удаленная работа)" style="shape=parallelogram;perimeter=parallelogramPerimeter;whiteSpace=wrap;html=1;fixedSize=1;fontSize=16;rounded=1;labelBackgroundColor=none;" vertex="1" parent="1">
          <mxGeometry x="2340" y="779" width="411.25" height="60" as="geometry" />
        </mxCell>
        <mxCell id="vXLQaoK03CL5f1c-ASwQ-127" value="" style="edgeStyle=orthogonalEdgeStyle;rounded=0;orthogonalLoop=1;jettySize=auto;html=1;" edge="1" parent="1" source="vXLQaoK03CL5f1c-ASwQ-128" target="vXLQaoK03CL5f1c-ASwQ-130">
          <mxGeometry relative="1" as="geometry" />
        </mxCell>
        <mxCell id="vXLQaoK03CL5f1c-ASwQ-128" value="Ссылка на карту, если есть" style="shape=parallelogram;perimeter=parallelogramPerimeter;whiteSpace=wrap;html=1;fixedSize=1;fontSize=16;rounded=1;labelBackgroundColor=none;" vertex="1" parent="1">
          <mxGeometry x="2427.5" y="856.5" width="195" height="60" as="geometry" />
        </mxCell>
        <mxCell id="vXLQaoK03CL5f1c-ASwQ-129" value="" style="edgeStyle=orthogonalEdgeStyle;rounded=0;orthogonalLoop=1;jettySize=auto;html=1;" edge="1" parent="1" source="vXLQaoK03CL5f1c-ASwQ-130" target="vXLQaoK03CL5f1c-ASwQ-131">
          <mxGeometry relative="1" as="geometry" />
        </mxCell>
        <mxCell id="vXLQaoK03CL5f1c-ASwQ-130" value="Контакты" style="shape=parallelogram;perimeter=parallelogramPerimeter;whiteSpace=wrap;html=1;fixedSize=1;fontSize=16;rounded=1;labelBackgroundColor=none;" vertex="1" parent="1">
          <mxGeometry x="2427.5" y="936.5" width="195" height="60" as="geometry" />
        </mxCell>
        <mxCell id="vXLQaoK03CL5f1c-ASwQ-135" style="edgeStyle=orthogonalEdgeStyle;rounded=0;orthogonalLoop=1;jettySize=auto;html=1;exitX=0.5;exitY=1;exitDx=0;exitDy=0;entryX=0.5;entryY=0;entryDx=0;entryDy=0;" edge="1" parent="1" source="vXLQaoK03CL5f1c-ASwQ-131" target="vXLQaoK03CL5f1c-ASwQ-133">
          <mxGeometry relative="1" as="geometry" />
        </mxCell>
        <mxCell id="vXLQaoK03CL5f1c-ASwQ-131" value="Теги" style="shape=parallelogram;perimeter=parallelogramPerimeter;whiteSpace=wrap;html=1;fixedSize=1;fontSize=16;rounded=1;labelBackgroundColor=none;" vertex="1" parent="1">
          <mxGeometry x="2427.5" y="1016.5" width="195" height="60" as="geometry" />
        </mxCell>
        <mxCell id="vXLQaoK03CL5f1c-ASwQ-132" value="" style="edgeStyle=orthogonalEdgeStyle;rounded=0;orthogonalLoop=1;jettySize=auto;html=1;" edge="1" parent="1" source="vXLQaoK03CL5f1c-ASwQ-133" target="vXLQaoK03CL5f1c-ASwQ-134">
          <mxGeometry relative="1" as="geometry" />
        </mxCell>
        <mxCell id="vXLQaoK03CL5f1c-ASwQ-133" value="Галерея" style="shape=parallelogram;perimeter=parallelogramPerimeter;whiteSpace=wrap;html=1;fixedSize=1;fontSize=16;rounded=1;labelBackgroundColor=none;" vertex="1" parent="1">
          <mxGeometry x="2427.5" y="1096.5" width="195" height="60" as="geometry" />
        </mxCell>
        <mxCell id="vXLQaoK03CL5f1c-ASwQ-134" value="Цены (возможно)" style="shape=parallelogram;perimeter=parallelogramPerimeter;whiteSpace=wrap;html=1;fixedSize=1;fontSize=16;rounded=1;labelBackgroundColor=none;" vertex="1" parent="1">
          <mxGeometry x="2427.5" y="1179" width="195" height="60" as="geometry" />
        </mxCell>
        <mxCell id="vXLQaoK03CL5f1c-ASwQ-138" value="Поля ввода (заполнение данных акции)" style="text;html=1;align=center;verticalAlign=middle;resizable=0;points=[];autosize=1;strokeColor=none;fillColor=none;fontSize=20;fontStyle=1" vertex="1" parent="1">
          <mxGeometry x="2321.25" y="160" width="420" height="40" as="geometry" />
        </mxCell>
        <mxCell id="vXLQaoK03CL5f1c-ASwQ-146" value="" style="edgeStyle=orthogonalEdgeStyle;rounded=0;orthogonalLoop=1;jettySize=auto;html=1;" edge="1" parent="1" source="vXLQaoK03CL5f1c-ASwQ-139" target="vXLQaoK03CL5f1c-ASwQ-145">
          <mxGeometry relative="1" as="geometry" />
        </mxCell>
        <mxCell id="vXLQaoK03CL5f1c-ASwQ-139" value="Заполнение полей &lt;br&gt;(данных об акции)" style="whiteSpace=wrap;html=1;fontSize=16;rounded=1;labelBackgroundColor=none;" vertex="1" parent="1">
          <mxGeometry x="1662.5" y="690" width="275" height="110" as="geometry" />
        </mxCell>
        <mxCell id="vXLQaoK03CL5f1c-ASwQ-143" value="" style="strokeWidth=2;html=1;shape=mxgraph.flowchart.annotation_2;align=left;labelPosition=right;pointerEvents=1;" vertex="1" parent="1">
          <mxGeometry x="2110" y="225" width="400" height="1040" as="geometry" />
        </mxCell>
        <mxCell id="vXLQaoK03CL5f1c-ASwQ-144" value="" style="endArrow=none;dashed=1;html=1;dashPattern=1 3;strokeWidth=2;rounded=0;exitX=1;exitY=0.5;exitDx=0;exitDy=0;entryX=0;entryY=0.5;entryDx=0;entryDy=0;entryPerimeter=0;" edge="1" parent="1" source="vXLQaoK03CL5f1c-ASwQ-139" target="vXLQaoK03CL5f1c-ASwQ-143">
          <mxGeometry width="50" height="50" relative="1" as="geometry">
            <mxPoint x="1950" y="680" as="sourcePoint" />
            <mxPoint x="2000" y="630" as="targetPoint" />
          </mxGeometry>
        </mxCell>
        <mxCell id="vXLQaoK03CL5f1c-ASwQ-145" value="Переход к настройкам промо" style="whiteSpace=wrap;html=1;fontSize=16;rounded=1;labelBackgroundColor=none;" vertex="1" parent="1">
          <mxGeometry x="1662.5" y="860" width="275" height="110" as="geometry" />
        </mxCell>
      </root>
    </mxGraphModel>
  </diagram>
</mxfile>
